<svg width="132" height="72" viewBox="0 0 132 72" fill="none" xmlns="http://www.w3.org/2000/svg">
<path d="M31.6 72C26.0667 72 21.3333 71.3333 17.4 70C13.4667 68.6667 10.3 67 7.9 65C5.5 62.9333 3.7 60.7333 2.5 58.4C1.36667 56.0667 0.766667 53.9 0.7 51.9C0.7 51.3 0.9 50.8 1.3 50.4C1.76667 49.9333 2.3 49.7 2.9 49.7H19.5C20.3667 49.7 21.0333 49.8667 21.5 50.2C21.9667 50.4667 22.4 50.9 22.8 51.5C23.2667 52.3 23.9 53 24.7 53.6C25.5 54.1333 26.4667 54.5333 27.6 54.8C28.7333 55 30.1 55.1 31.7 55.1C34.5667 55.1 36.7333 54.4667 38.2 53.2C39.6667 51.8667 40.4 50.1333 40.4 48C40.4 45.8667 39.6667 44.3333 38.2 43.4C36.7333 42.4 34.6333 41.9 31.9 41.9H20.1C19.3667 41.9 18.7333 41.6333 18.2 41.1C17.7333 40.5667 17.5 39.9667 17.5 39.3V32.4C17.5 31.4667 17.6667 30.7 18 30.1C18.4 29.4333 18.8333 28.9667 19.3 28.7L34.4 18H7.4C6.66667 18 6.03333 17.7333 5.5 17.2C5.03333 16.6667 4.8 16.0667 4.8 15.4V3.6C4.8 2.86666 5.03333 2.26666 5.5 1.8C6.03333 1.26666 6.66667 0.999995 7.4 0.999995H56C56.7333 0.999995 57.3333 1.26666 57.8 1.8C58.3333 2.26666 58.6 2.86666 58.6 3.6V14.2C58.6 15.0667 58.4333 15.8333 58.1 16.5C57.7667 17.1 57.3667 17.5333 56.9 17.8L43.4 28.8L43.8 29C47.3333 29.6667 50.5333 30.8 53.4 32.4C56.2667 33.9333 58.5333 36.1 60.2 38.9C61.8667 41.7 62.7 45.2333 62.7 49.5C62.7 54.0333 61.3333 58 58.6 61.4C55.9333 64.7333 52.2667 67.3333 47.6 69.2C43 71.0667 37.6667 72 31.6 72ZM101.259 72C96.326 72 92.026 71.3333 88.3594 70C84.6927 68.6667 81.626 66.8333 79.1594 64.5C76.7594 62.1667 74.8927 59.4333 73.5594 56.3C72.226 53.1 71.426 49.6667 71.1594 46C71.0927 44.2 71.026 42.0667 70.9594 39.6C70.9594 37.1333 70.9594 34.6667 70.9594 32.2C71.026 29.6667 71.0927 27.4667 71.1594 25.6C71.426 21.9333 72.226 18.5667 73.5594 15.5C74.9594 12.3667 76.926 9.66666 79.4594 7.4C81.9927 5.06667 85.0594 3.26666 88.6594 1.99999C92.2594 0.666662 96.4594 -3.8147e-06 101.259 -3.8147e-06C105.993 -3.8147e-06 110.159 0.666662 113.759 1.99999C117.426 3.26666 120.493 5.06667 122.959 7.4C125.493 9.66666 127.426 12.3667 128.759 15.5C130.159 18.5667 130.993 21.9333 131.259 25.6C131.393 27.4667 131.459 29.6667 131.459 32.2C131.459 34.6667 131.459 37.1333 131.459 39.6C131.459 42.0667 131.393 44.2 131.259 46C130.993 49.6667 130.193 53.1 128.859 56.3C127.593 59.4333 125.726 62.1667 123.259 64.5C120.793 66.8333 117.726 68.6667 114.059 70C110.393 71.3333 106.126 72 101.259 72ZM101.259 54.9C103.926 54.9 105.826 54.0333 106.959 52.3C108.159 50.5667 108.826 48.3 108.959 45.5C109.026 43.5667 109.059 41.4667 109.059 39.2C109.126 36.9333 109.126 34.6667 109.059 32.4C109.059 30.0667 109.026 28 108.959 26.2C108.826 23.5333 108.193 21.3333 107.059 19.6C105.926 17.8 103.993 16.8667 101.259 16.8C98.526 16.8667 96.5927 17.8 95.4594 19.6C94.326 21.3333 93.6927 23.5333 93.5594 26.2C93.4927 28 93.426 30.0667 93.3594 32.4C93.3594 34.6667 93.3594 36.9333 93.3594 39.2C93.426 41.4667 93.4927 43.5667 93.5594 45.5C93.6927 48.3 94.326 50.5667 95.4594 52.3C96.6594 54.0333 98.5927 54.9 101.259 54.9Z" fill="url(#paint0_radial_14_452)"/>
<defs>
<radialGradient id="paint0_radial_14_452" cx="0" cy="0" r="1" gradientUnits="userSpaceOnUse" gradientTransform="translate(5.39095 -68.3807) rotate(57.3084) scale(299.574 8694.47)">
<stop stop-color="#008AFF"/>
<stop offset="0.856356" stop-color="#2C49A9"/>
<stop offset="1" stop-color="#008AFF" stop-opacity="0"/>
</radialGradient>
</defs>
</svg>
