<svg width="612" height="48" viewBox="0 0 612 48" fill="none" xmlns="http://www.w3.org/2000/svg">
<path d="M15.8 37.5C13.0333 37.5 10.6667 37.1667 8.7 36.5C6.73333 35.8333 5.15 35 3.95 34C2.75 32.9667 1.85 31.8667 1.25 30.7C0.683333 29.5333 0.383333 28.45 0.35 27.45C0.35 27.15 0.45 26.9 0.65 26.7C0.883333 26.4667 1.15 26.35 1.45 26.35H9.75C10.1833 26.35 10.5167 26.4333 10.75 26.6C10.9833 26.7333 11.2 26.95 11.4 27.25C11.6333 27.65 11.95 28 12.35 28.3C12.75 28.5667 13.2333 28.7667 13.8 28.9C14.3667 29 15.05 29.05 15.85 29.05C17.2833 29.05 18.3667 28.7333 19.1 28.1C19.8333 27.4333 20.2 26.5667 20.2 25.5C20.2 24.4333 19.8333 23.6667 19.1 23.2C18.3667 22.7 17.3167 22.45 15.95 22.45H10.05C9.68333 22.45 9.36667 22.3167 9.1 22.05C8.86667 21.7833 8.75 21.4833 8.75 21.15V17.7C8.75 17.2333 8.83333 16.85 9 16.55C9.2 16.2167 9.41667 15.9833 9.65 15.85L17.2 10.5H3.7C3.33333 10.5 3.01667 10.3667 2.75 10.1C2.51667 9.83333 2.4 9.53333 2.4 9.2V3.3C2.4 2.93333 2.51667 2.63333 2.75 2.4C3.01667 2.13333 3.33333 2 3.7 2H28C28.3667 2 28.6667 2.13333 28.9 2.4C29.1667 2.63333 29.3 2.93333 29.3 3.3V8.6C29.3 9.03333 29.2167 9.41667 29.05 9.75C28.8833 10.05 28.6833 10.2667 28.45 10.4L21.7 15.9L21.9 16C23.6667 16.3333 25.2667 16.9 26.7 17.7C28.1333 18.4667 29.2667 19.55 30.1 20.95C30.9333 22.35 31.35 24.1167 31.35 26.25C31.35 28.5167 30.6667 30.5 29.3 32.2C27.9667 33.8667 26.1333 35.1667 23.8 36.1C21.5 37.0333 18.8333 37.5 15.8 37.5ZM50.6297 37.5C48.163 37.5 46.013 37.1667 44.1797 36.5C42.3464 35.8333 40.813 34.9167 39.5797 33.75C38.3797 32.5833 37.4464 31.2167 36.7797 29.65C36.113 28.05 35.713 26.3333 35.5797 24.5C35.5464 23.6 35.513 22.5333 35.4797 21.3C35.4797 20.0667 35.4797 18.8333 35.4797 17.6C35.513 16.3333 35.5464 15.2333 35.5797 14.3C35.713 12.4667 36.113 10.7833 36.7797 9.25C37.4797 7.68333 38.463 6.33333 39.7297 5.2C40.9964 4.03333 42.5297 3.13333 44.3297 2.5C46.1297 1.83333 48.2297 1.5 50.6297 1.5C52.9964 1.5 55.0797 1.83333 56.8797 2.5C58.713 3.13333 60.2464 4.03333 61.4797 5.2C62.7464 6.33333 63.713 7.68333 64.3797 9.25C65.0797 10.7833 65.4964 12.4667 65.6297 14.3C65.6964 15.2333 65.7297 16.3333 65.7297 17.6C65.7297 18.8333 65.7297 20.0667 65.7297 21.3C65.7297 22.5333 65.6964 23.6 65.6297 24.5C65.4964 26.3333 65.0964 28.05 64.4297 29.65C63.7964 31.2167 62.863 32.5833 61.6297 33.75C60.3964 34.9167 58.863 35.8333 57.0297 36.5C55.1964 37.1667 53.063 37.5 50.6297 37.5ZM50.6297 28.95C51.963 28.95 52.913 28.5167 53.4797 27.65C54.0797 26.7833 54.413 25.65 54.4797 24.25C54.513 23.2833 54.5297 22.2333 54.5297 21.1C54.563 19.9667 54.563 18.8333 54.5297 17.7C54.5297 16.5333 54.513 15.5 54.4797 14.6C54.413 13.2667 54.0964 12.1667 53.5297 11.3C52.963 10.4 51.9964 9.93333 50.6297 9.9C49.263 9.93333 48.2964 10.4 47.7297 11.3C47.163 12.1667 46.8464 13.2667 46.7797 14.6C46.7464 15.5 46.713 16.5333 46.6797 17.7C46.6797 18.8333 46.6797 19.9667 46.6797 21.1C46.713 22.2333 46.7464 23.2833 46.7797 24.25C46.8464 25.65 47.163 26.7833 47.7297 27.65C48.3297 28.5167 49.2964 28.95 50.6297 28.95ZM82.5016 37C82.1682 37 81.8682 36.8833 81.6016 36.65C81.3349 36.3833 81.2016 36.0667 81.2016 35.7V3.3C81.2016 2.93333 81.3349 2.63333 81.6016 2.4C81.8682 2.13333 82.1682 2 82.5016 2H97.1016C100.002 2 102.518 2.43333 104.652 3.3C106.818 4.16667 108.502 5.48333 109.702 7.25C110.902 9.01666 111.502 11.2333 111.502 13.9C111.502 16.5667 110.902 18.7667 109.702 20.5C108.502 22.2 106.818 23.45 104.652 24.25C102.518 25.05 100.002 25.45 97.1016 25.45H92.3516V35.7C92.3516 36.0667 92.2182 36.3833 91.9516 36.65C91.7182 36.8833 91.4182 37 91.0516 37H82.5016ZM92.1516 17.4H96.8516C97.8182 17.4 98.6349 17.1167 99.3016 16.55C100.002 15.95 100.352 15.0333 100.352 13.8C100.352 12.8667 100.085 12.0167 99.5516 11.25C99.0182 10.4833 98.1182 10.1 96.8516 10.1H92.1516V17.4ZM127.729 37.5C123.562 37.5 120.246 36.4333 117.779 34.3C115.346 32.1333 114.096 28.8333 114.029 24.4C114.029 24.2667 114.029 24.1 114.029 23.9C114.029 23.6667 114.029 23.5 114.029 23.4C114.129 20.6333 114.729 18.3 115.829 16.4C116.962 14.4667 118.529 13 120.529 12C122.562 11 124.946 10.5 127.679 10.5C130.746 10.5 133.279 11.1167 135.279 12.35C137.312 13.55 138.829 15.1667 139.829 17.2C140.829 19.2 141.329 21.45 141.329 23.95V25.35C141.329 25.6833 141.196 25.9833 140.929 26.25C140.662 26.5167 140.346 26.65 139.979 26.65H124.579C124.579 26.65 124.579 26.6833 124.579 26.75C124.579 26.8167 124.579 26.8833 124.579 26.95C124.579 27.75 124.679 28.4667 124.879 29.1C125.112 29.7 125.462 30.1833 125.929 30.55C126.396 30.8833 126.962 31.05 127.629 31.05C128.062 31.05 128.429 30.9833 128.729 30.85C129.029 30.7167 129.279 30.55 129.479 30.35C129.712 30.1167 129.912 29.9 130.079 29.7C130.379 29.4 130.629 29.2167 130.829 29.15C131.029 29.05 131.329 29 131.729 29H139.579C139.879 29 140.129 29.1 140.329 29.3C140.562 29.5 140.662 29.75 140.629 30.05C140.596 30.65 140.312 31.3833 139.779 32.25C139.246 33.0833 138.446 33.9 137.379 34.7C136.346 35.5 135.012 36.1667 133.379 36.7C131.746 37.2333 129.862 37.5 127.729 37.5ZM124.579 21.05H130.779V20.95C130.779 20.05 130.662 19.2833 130.429 18.65C130.196 18.0167 129.846 17.55 129.379 17.25C128.912 16.9167 128.346 16.75 127.679 16.75C127.012 16.75 126.446 16.9167 125.979 17.25C125.512 17.55 125.162 18.0167 124.929 18.65C124.696 19.2833 124.579 20.05 124.579 20.95V21.05ZM146.748 37C146.381 37 146.064 36.8833 145.798 36.65C145.564 36.3833 145.448 36.0667 145.448 35.7V12.3C145.448 11.9333 145.564 11.6333 145.798 11.4C146.064 11.1333 146.381 11 146.748 11H153.998C154.364 11 154.664 11.1333 154.898 11.4C155.164 11.6333 155.298 11.9333 155.298 12.3V14.15C156.298 13.1833 157.431 12.4167 158.698 11.85C159.998 11.2833 161.414 11 162.948 11H165.198C165.564 11 165.881 11.1333 166.148 11.4C166.414 11.6333 166.548 11.9333 166.548 12.3V18.75C166.548 19.1167 166.414 19.4333 166.148 19.7C165.881 19.9667 165.564 20.1 165.198 20.1H159.598C158.398 20.1 157.481 20.4167 156.848 21.05C156.214 21.65 155.898 22.55 155.898 23.75V35.7C155.898 36.0667 155.764 36.3833 155.498 36.65C155.264 36.8833 154.964 37 154.598 37H146.748ZM183.366 48C180.666 48 178.416 47.65 176.616 46.95C174.85 46.2833 173.433 45.45 172.366 44.45C171.3 43.4833 170.533 42.5167 170.066 41.55C169.633 40.6167 169.4 39.8833 169.366 39.35C169.333 38.9833 169.45 38.6667 169.716 38.4C169.983 38.1667 170.3 38.05 170.666 38.05H178.716C179.05 38.05 179.316 38.1333 179.516 38.3C179.75 38.4667 179.933 38.7167 180.066 39.05C180.233 39.35 180.416 39.65 180.616 39.95C180.85 40.25 181.166 40.4833 181.566 40.65C181.966 40.8167 182.483 40.9 183.116 40.9C183.883 40.9 184.5 40.7667 184.966 40.5C185.466 40.2333 185.833 39.8167 186.066 39.25C186.333 38.6833 186.466 37.9333 186.466 37V33.65C185.666 34.4167 184.683 35.0333 183.516 35.5C182.383 35.9333 181.033 36.15 179.466 36.15C177.833 36.15 176.366 35.9333 175.066 35.5C173.8 35.0333 172.716 34.3333 171.816 33.4C170.95 32.4667 170.25 31.2833 169.716 29.85C169.216 28.4167 168.933 26.7 168.866 24.7C168.833 23.8333 168.833 22.9667 168.866 22.1C168.933 20.2333 169.216 18.5833 169.716 17.15C170.216 15.6833 170.916 14.4667 171.816 13.5C172.716 12.5333 173.8 11.8 175.066 11.3C176.366 10.7667 177.833 10.5 179.466 10.5C181.166 10.5 182.65 10.8333 183.916 11.5C185.216 12.1333 186.266 12.9667 187.066 14V12.3C187.066 11.9333 187.183 11.6333 187.416 11.4C187.683 11.1333 188 11 188.366 11H195.616C195.983 11 196.283 11.1333 196.516 11.4C196.783 11.6333 196.916 11.9333 196.916 12.3L196.966 36.2C196.966 38.9 196.383 41.1167 195.216 42.85C194.083 44.5833 192.5 45.8667 190.466 46.7C188.433 47.5667 186.066 48 183.366 48ZM182.916 28.55C183.716 28.55 184.366 28.3833 184.866 28.05C185.366 27.7167 185.733 27.2833 185.966 26.75C186.233 26.1833 186.4 25.55 186.466 24.85C186.5 24.55 186.516 24.0667 186.516 23.4C186.516 22.7333 186.5 22.2667 186.466 22C186.4 21.3 186.233 20.6833 185.966 20.15C185.733 19.5833 185.366 19.1333 184.866 18.8C184.366 18.4667 183.716 18.3 182.916 18.3C182.05 18.3 181.366 18.4833 180.866 18.85C180.366 19.1833 180 19.6667 179.766 20.3C179.566 20.9 179.433 21.6 179.366 22.4C179.3 23.1 179.3 23.7833 179.366 24.45C179.433 25.25 179.566 25.9667 179.766 26.6C180 27.2 180.366 27.6833 180.866 28.05C181.366 28.3833 182.05 28.55 182.916 28.55ZM211.686 37.5C209.886 37.5 208.236 37.0833 206.736 36.25C205.269 35.4167 204.103 34.1667 203.236 32.5C202.369 30.8333 201.936 28.7333 201.936 26.2V12.3C201.936 11.9333 202.053 11.6333 202.286 11.4C202.553 11.1333 202.869 11 203.236 11H211.136C211.503 11 211.803 11.1333 212.036 11.4C212.303 11.6333 212.436 11.9333 212.436 12.3V25.85C212.436 28.4167 213.586 29.7 215.886 29.7C216.986 29.7 217.836 29.3667 218.436 28.7C219.069 28.0333 219.386 27.0833 219.386 25.85V12.3C219.386 11.9333 219.503 11.6333 219.736 11.4C220.003 11.1333 220.319 11 220.686 11H228.586C228.919 11 229.219 11.1333 229.486 11.4C229.753 11.6333 229.886 11.9333 229.886 12.3V35.7C229.886 36.0667 229.753 36.3833 229.486 36.65C229.219 36.8833 228.919 37 228.586 37H221.286C220.919 37 220.603 36.8833 220.336 36.65C220.103 36.3833 219.986 36.0667 219.986 35.7V33.9C219.153 35.1333 218.019 36.05 216.586 36.65C215.153 37.2167 213.519 37.5 211.686 37.5ZM236.347 37C235.981 37 235.664 36.8833 235.397 36.65C235.164 36.3833 235.047 36.0667 235.047 35.7V12.3C235.047 11.9333 235.164 11.6333 235.397 11.4C235.664 11.1333 235.981 11 236.347 11H243.597C243.964 11 244.264 11.1333 244.497 11.4C244.764 11.6333 244.897 11.9333 244.897 12.3V14.1C245.764 13.1 246.914 12.25 248.347 11.55C249.781 10.85 251.414 10.5 253.247 10.5C255.047 10.5 256.681 10.9167 258.147 11.75C259.614 12.5833 260.797 13.8333 261.697 15.5C262.597 17.1667 263.047 19.2667 263.047 21.8V35.7C263.047 36.0667 262.914 36.3833 262.647 36.65C262.381 36.8833 262.064 37 261.697 37H253.797C253.431 37 253.114 36.8833 252.847 36.65C252.614 36.3833 252.497 36.0667 252.497 35.7V22.15C252.497 20.9167 252.197 19.9667 251.597 19.3C250.997 18.6333 250.147 18.3 249.047 18.3C247.947 18.3 247.081 18.6333 246.447 19.3C245.814 19.9667 245.497 20.9167 245.497 22.15V35.7C245.497 36.0667 245.364 36.3833 245.097 36.65C244.864 36.8833 244.564 37 244.197 37H236.347ZM282.413 37C280.147 37 278.147 36.6667 276.413 36C274.713 35.3333 273.38 34.25 272.413 32.75C271.48 31.2167 271.013 29.2 271.013 26.7V18.65H267.063C266.697 18.65 266.38 18.5333 266.113 18.3C265.88 18.0333 265.763 17.7167 265.763 17.35V12.3C265.763 11.9333 265.88 11.6333 266.113 11.4C266.38 11.1333 266.697 11 267.063 11H271.013V2.8C271.013 2.43333 271.13 2.13333 271.363 1.9C271.63 1.63333 271.947 1.5 272.313 1.5H279.563C279.93 1.5 280.23 1.63333 280.463 1.9C280.73 2.13333 280.863 2.43333 280.863 2.8V11H287.163C287.53 11 287.83 11.1333 288.063 11.4C288.33 11.6333 288.463 11.9333 288.463 12.3V17.35C288.463 17.7167 288.33 18.0333 288.063 18.3C287.83 18.5333 287.53 18.65 287.163 18.65H280.863V25.85C280.863 26.8167 281.063 27.5833 281.463 28.15C281.863 28.6833 282.497 28.95 283.363 28.95H287.563C287.93 28.95 288.23 29.0833 288.463 29.35C288.73 29.5833 288.863 29.8833 288.863 30.25V35.7C288.863 36.0667 288.73 36.3833 288.463 36.65C288.23 36.8833 287.93 37 287.563 37H282.413ZM300.763 37.5C298.93 37.5 297.28 37.15 295.813 36.45C294.38 35.75 293.247 34.8167 292.413 33.65C291.613 32.45 291.213 31.1167 291.213 29.65C291.213 27.25 292.18 25.3667 294.113 24C296.08 22.6 298.697 21.6333 301.963 21.1L307.713 20.2V19.85C307.713 18.8167 307.547 18.05 307.213 17.55C306.913 17.0167 306.263 16.75 305.263 16.75C304.563 16.75 303.997 16.8833 303.563 17.15C303.13 17.4167 302.73 17.8 302.363 18.3C302.03 18.6667 301.597 18.85 301.063 18.85H294.013C293.647 18.85 293.363 18.75 293.163 18.55C292.963 18.35 292.88 18.0833 292.913 17.75C292.947 17.15 293.197 16.45 293.663 15.65C294.13 14.8167 294.847 14.0167 295.813 13.25C296.813 12.45 298.097 11.8 299.663 11.3C301.23 10.7667 303.113 10.5 305.313 10.5C307.547 10.5 309.463 10.75 311.063 11.25C312.663 11.75 313.98 12.45 315.013 13.35C316.047 14.25 316.813 15.35 317.313 16.65C317.813 17.9167 318.063 19.3333 318.063 20.9V35.7C318.063 36.0667 317.93 36.3833 317.663 36.65C317.43 36.8833 317.13 37 316.763 37H309.463C309.13 37 308.83 36.8833 308.563 36.65C308.297 36.3833 308.163 36.0667 308.163 35.7V34.1C307.73 34.7667 307.147 35.35 306.413 35.85C305.713 36.35 304.88 36.75 303.913 37.05C302.98 37.35 301.93 37.5 300.763 37.5ZM303.663 30.95C304.497 30.95 305.213 30.7833 305.813 30.45C306.447 30.0833 306.947 29.5333 307.313 28.8C307.68 28.0667 307.863 27.15 307.863 26.05V25.7L304.263 26.4C303.03 26.6333 302.163 26.9833 301.663 27.45C301.163 27.8833 300.913 28.3667 300.913 28.9C300.913 29.3 301.03 29.65 301.263 29.95C301.497 30.25 301.813 30.5 302.213 30.7C302.647 30.8667 303.13 30.95 303.663 30.95ZM334.486 37.5C332.219 37.5 330.286 37.2667 328.686 36.8C327.086 36.3 325.769 35.6833 324.736 34.95C323.736 34.2167 323.002 33.4667 322.536 32.7C322.069 31.9 321.819 31.2 321.786 30.6C321.752 30.2333 321.852 29.9333 322.086 29.7C322.352 29.4333 322.636 29.3 322.936 29.3H330.186C330.219 29.3 330.269 29.3167 330.336 29.35C330.402 29.35 330.469 29.3833 330.536 29.45C330.969 29.5833 331.369 29.8 331.736 30.1C332.136 30.4 332.569 30.6667 333.036 30.9C333.536 31.1333 334.119 31.25 334.786 31.25C335.352 31.25 335.852 31.1333 336.286 30.9C336.752 30.6333 336.986 30.2667 336.986 29.8C336.986 29.4 336.852 29.05 336.586 28.75C336.352 28.45 335.836 28.1667 335.036 27.9C334.236 27.6 332.952 27.2833 331.186 26.95C329.552 26.6167 328.052 26.1333 326.686 25.5C325.352 24.8333 324.286 23.95 323.486 22.85C322.719 21.75 322.336 20.4 322.336 18.8C322.336 17.4333 322.786 16.1167 323.686 14.85C324.586 13.5833 325.919 12.55 327.686 11.75C329.486 10.9167 331.686 10.5 334.286 10.5C336.252 10.5 337.986 10.7333 339.486 11.2C341.019 11.6667 342.302 12.25 343.336 12.95C344.402 13.65 345.202 14.4 345.736 15.2C346.302 16 346.602 16.7167 346.636 17.35C346.669 17.7167 346.569 18.0333 346.336 18.3C346.102 18.5333 345.836 18.65 345.536 18.65H338.986C338.886 18.65 338.769 18.65 338.636 18.65C338.536 18.6167 338.452 18.5667 338.386 18.5C337.919 18.4 337.486 18.2167 337.086 17.95C336.719 17.65 336.319 17.3833 335.886 17.15C335.452 16.8833 334.902 16.75 334.236 16.75C333.669 16.75 333.202 16.8833 332.836 17.15C332.502 17.4167 332.336 17.7667 332.336 18.2C332.336 18.5667 332.452 18.9 332.686 19.2C332.919 19.5 333.452 19.7833 334.286 20.05C335.119 20.3167 336.436 20.6 338.236 20.9C340.569 21.2667 342.436 21.8833 343.836 22.75C345.236 23.5833 346.236 24.5667 346.836 25.7C347.436 26.8333 347.736 27.9667 347.736 29.1C347.736 30.8 347.219 32.2833 346.186 33.55C345.186 34.8167 343.686 35.8 341.686 36.5C339.719 37.1667 337.319 37.5 334.486 37.5ZM365.279 37C364.912 37 364.595 36.8833 364.329 36.65C364.095 36.3833 363.979 36.0667 363.979 35.7V18.65H360.329C359.962 18.65 359.645 18.5333 359.379 18.3C359.145 18.0333 359.029 17.7167 359.029 17.35V12.3C359.029 11.9333 359.145 11.6333 359.379 11.4C359.645 11.1333 359.962 11 360.329 11H363.979V9.8C363.979 7.26667 364.479 5.3 365.479 3.9C366.512 2.46666 367.929 1.46666 369.729 0.899997C371.529 0.299999 373.595 -4.76837e-07 375.929 -4.76837e-07H380.179C380.545 -4.76837e-07 380.862 0.133332 381.129 0.399997C381.395 0.633332 381.529 0.933332 381.529 1.3V6.35C381.529 6.71666 381.395 7.03333 381.129 7.3C380.862 7.53333 380.545 7.65 380.179 7.65H376.429C375.495 7.65 374.829 7.86667 374.429 8.3C374.029 8.7 373.829 9.28333 373.829 10.05V11H379.679C380.045 11 380.362 11.1333 380.629 11.4C380.895 11.6333 381.029 11.9333 381.029 12.3V17.35C381.029 17.7167 380.895 18.0333 380.629 18.3C380.362 18.5333 380.045 18.65 379.679 18.65H373.829V35.7C373.829 36.0667 373.695 36.3833 373.429 36.65C373.195 36.8833 372.895 37 372.529 37H365.279ZM385.468 37C385.102 37 384.785 36.8833 384.518 36.65C384.285 36.3833 384.168 36.0667 384.168 35.7V12.3C384.168 11.9333 384.285 11.6333 384.518 11.4C384.785 11.1333 385.102 11 385.468 11H392.718C393.085 11 393.385 11.1333 393.618 11.4C393.885 11.6333 394.018 11.9333 394.018 12.3V14.15C395.018 13.1833 396.152 12.4167 397.418 11.85C398.718 11.2833 400.135 11 401.668 11H403.918C404.285 11 404.602 11.1333 404.868 11.4C405.135 11.6333 405.268 11.9333 405.268 12.3V18.75C405.268 19.1167 405.135 19.4333 404.868 19.7C404.602 19.9667 404.285 20.1 403.918 20.1H398.318C397.118 20.1 396.202 20.4167 395.568 21.05C394.935 21.65 394.618 22.55 394.618 23.75V35.7C394.618 36.0667 394.485 36.3833 394.218 36.65C393.985 36.8833 393.685 37 393.318 37H385.468ZM421.437 37.5C418.504 37.5 416.02 37.0667 413.987 36.2C411.987 35.3333 410.454 34.0667 409.387 32.4C408.32 30.7 407.72 28.6667 407.587 26.3C407.554 25.6 407.537 24.8333 407.537 24C407.537 23.1667 407.554 22.4 407.587 21.7C407.72 19.3 408.354 17.2667 409.487 15.6C410.62 13.9333 412.187 12.6667 414.187 11.8C416.22 10.9333 418.637 10.5 421.437 10.5C424.237 10.5 426.637 10.9333 428.637 11.8C430.67 12.6667 432.254 13.9333 433.387 15.6C434.52 17.2667 435.154 19.3 435.287 21.7C435.354 22.4 435.387 23.1667 435.387 24C435.387 24.8333 435.354 25.6 435.287 26.3C435.154 28.6667 434.554 30.7 433.487 32.4C432.42 34.0667 430.87 35.3333 428.837 36.2C426.837 37.0667 424.37 37.5 421.437 37.5ZM421.437 30.45C422.67 30.45 423.52 30.0833 423.987 29.35C424.454 28.6167 424.72 27.5167 424.787 26.05C424.82 25.55 424.837 24.8667 424.837 24C424.837 23.1333 424.82 22.45 424.787 21.95C424.72 20.5167 424.454 19.4333 423.987 18.7C423.52 17.9333 422.67 17.55 421.437 17.55C420.237 17.55 419.404 17.9333 418.937 18.7C418.47 19.4333 418.187 20.5167 418.087 21.95C418.054 22.45 418.037 23.1333 418.037 24C418.037 24.8667 418.054 25.55 418.087 26.05C418.187 27.5167 418.47 28.6167 418.937 29.35C419.404 30.0833 420.237 30.45 421.437 30.45ZM440.986 37C440.619 37 440.303 36.8833 440.036 36.65C439.803 36.3833 439.686 36.0667 439.686 35.7V12.3C439.686 11.9333 439.803 11.6333 440.036 11.4C440.303 11.1333 440.619 11 440.986 11H448.236C448.603 11 448.903 11.1333 449.136 11.4C449.403 11.6333 449.536 11.9333 449.536 12.3V14.1C450.403 13.1 451.553 12.25 452.986 11.55C454.419 10.85 456.053 10.5 457.886 10.5C459.686 10.5 461.319 10.9167 462.786 11.75C464.253 12.5833 465.436 13.8333 466.336 15.5C467.236 17.1667 467.686 19.2667 467.686 21.8V35.7C467.686 36.0667 467.553 36.3833 467.286 36.65C467.019 36.8833 466.703 37 466.336 37H458.436C458.069 37 457.753 36.8833 457.486 36.65C457.253 36.3833 457.136 36.0667 457.136 35.7V22.15C457.136 20.9167 456.836 19.9667 456.236 19.3C455.636 18.6333 454.786 18.3 453.686 18.3C452.586 18.3 451.719 18.6333 451.086 19.3C450.453 19.9667 450.136 20.9167 450.136 22.15V35.7C450.136 36.0667 450.003 36.3833 449.736 36.65C449.503 36.8833 449.203 37 448.836 37H440.986ZM487.052 37C484.785 37 482.785 36.6667 481.052 36C479.352 35.3333 478.019 34.25 477.052 32.75C476.119 31.2167 475.652 29.2 475.652 26.7V18.65H471.702C471.335 18.65 471.019 18.5333 470.752 18.3C470.519 18.0333 470.402 17.7167 470.402 17.35V12.3C470.402 11.9333 470.519 11.6333 470.752 11.4C471.019 11.1333 471.335 11 471.702 11H475.652V2.8C475.652 2.43333 475.769 2.13333 476.002 1.9C476.269 1.63333 476.585 1.5 476.952 1.5H484.202C484.569 1.5 484.869 1.63333 485.102 1.9C485.369 2.13333 485.502 2.43333 485.502 2.8V11H491.802C492.169 11 492.469 11.1333 492.702 11.4C492.969 11.6333 493.102 11.9333 493.102 12.3V17.35C493.102 17.7167 492.969 18.0333 492.702 18.3C492.469 18.5333 492.169 18.65 491.802 18.65H485.502V25.85C485.502 26.8167 485.702 27.5833 486.102 28.15C486.502 28.6833 487.135 28.95 488.002 28.95H492.202C492.569 28.95 492.869 29.0833 493.102 29.35C493.369 29.5833 493.502 29.8833 493.502 30.25V35.7C493.502 36.0667 493.369 36.3833 493.102 36.65C492.869 36.8833 492.569 37 492.202 37H487.052ZM498.504 26.25C498.138 26.25 497.821 26.1333 497.554 25.9C497.321 25.6333 497.204 25.3167 497.204 24.95V19.05C497.204 18.6833 497.321 18.3833 497.554 18.15C497.821 17.8833 498.138 17.75 498.504 17.75H514.504C514.871 17.75 515.171 17.8833 515.404 18.15C515.671 18.3833 515.804 18.6833 515.804 19.05V24.95C515.804 25.3167 515.671 25.6333 515.404 25.9C515.171 26.1333 514.871 26.25 514.504 26.25H498.504ZM533.686 37.5C529.519 37.5 526.203 36.4333 523.736 34.3C521.303 32.1333 520.053 28.8333 519.986 24.4C519.986 24.2667 519.986 24.1 519.986 23.9C519.986 23.6667 519.986 23.5 519.986 23.4C520.086 20.6333 520.686 18.3 521.786 16.4C522.919 14.4667 524.486 13 526.486 12C528.519 11 530.903 10.5 533.636 10.5C536.703 10.5 539.236 11.1167 541.236 12.35C543.269 13.55 544.786 15.1667 545.786 17.2C546.786 19.2 547.286 21.45 547.286 23.95V25.35C547.286 25.6833 547.153 25.9833 546.886 26.25C546.619 26.5167 546.303 26.65 545.936 26.65H530.536C530.536 26.65 530.536 26.6833 530.536 26.75C530.536 26.8167 530.536 26.8833 530.536 26.95C530.536 27.75 530.636 28.4667 530.836 29.1C531.069 29.7 531.419 30.1833 531.886 30.55C532.353 30.8833 532.919 31.05 533.586 31.05C534.019 31.05 534.386 30.9833 534.686 30.85C534.986 30.7167 535.236 30.55 535.436 30.35C535.669 30.1167 535.869 29.9 536.036 29.7C536.336 29.4 536.586 29.2167 536.786 29.15C536.986 29.05 537.286 29 537.686 29H545.536C545.836 29 546.086 29.1 546.286 29.3C546.519 29.5 546.619 29.75 546.586 30.05C546.553 30.65 546.269 31.3833 545.736 32.25C545.203 33.0833 544.403 33.9 543.336 34.7C542.303 35.5 540.969 36.1667 539.336 36.7C537.703 37.2333 535.819 37.5 533.686 37.5ZM530.536 21.05H536.736V20.95C536.736 20.05 536.619 19.2833 536.386 18.65C536.153 18.0167 535.803 17.55 535.336 17.25C534.869 16.9167 534.303 16.75 533.636 16.75C532.969 16.75 532.403 16.9167 531.936 17.25C531.469 17.55 531.119 18.0167 530.886 18.65C530.653 19.2833 530.536 20.05 530.536 20.95V21.05ZM552.705 37C552.338 37 552.021 36.8833 551.755 36.65C551.521 36.3833 551.405 36.0667 551.405 35.7V12.3C551.405 11.9333 551.521 11.6333 551.755 11.4C552.021 11.1333 552.338 11 552.705 11H559.955C560.321 11 560.621 11.1333 560.855 11.4C561.121 11.6333 561.255 11.9333 561.255 12.3V14.1C562.121 13.1 563.271 12.25 564.705 11.55C566.138 10.85 567.771 10.5 569.605 10.5C571.405 10.5 573.038 10.9167 574.505 11.75C575.971 12.5833 577.155 13.8333 578.055 15.5C578.955 17.1667 579.405 19.2667 579.405 21.8V35.7C579.405 36.0667 579.271 36.3833 579.005 36.65C578.738 36.8833 578.421 37 578.055 37H570.155C569.788 37 569.471 36.8833 569.205 36.65C568.971 36.3833 568.855 36.0667 568.855 35.7V22.15C568.855 20.9167 568.555 19.9667 567.955 19.3C567.355 18.6333 566.505 18.3 565.405 18.3C564.305 18.3 563.438 18.6333 562.805 19.3C562.171 19.9667 561.855 20.9167 561.855 22.15V35.7C561.855 36.0667 561.721 36.3833 561.455 36.65C561.221 36.8833 560.921 37 560.555 37H552.705ZM594.165 37.5C592.632 37.5 591.232 37.2667 589.965 36.8C588.698 36.3333 587.598 35.6167 586.665 34.65C585.732 33.6833 584.998 32.4667 584.465 31C583.932 29.5333 583.615 27.8167 583.515 25.85C583.482 25.1167 583.465 24.4833 583.465 23.95C583.465 23.4167 583.482 22.8 583.515 22.1C583.582 20.2333 583.882 18.5833 584.415 17.15C584.948 15.6833 585.682 14.4667 586.615 13.5C587.548 12.5333 588.648 11.8 589.915 11.3C591.215 10.7667 592.632 10.5 594.165 10.5C595.665 10.5 596.998 10.75 598.165 11.25C599.332 11.7167 600.315 12.35 601.115 13.15V2.8C601.115 2.43333 601.232 2.13333 601.465 1.9C601.732 1.63333 602.048 1.5 602.415 1.5H610.115C610.482 1.5 610.782 1.63333 611.015 1.9C611.282 2.13333 611.415 2.43333 611.415 2.8V35.7C611.415 36.0667 611.282 36.3833 611.015 36.65C610.782 36.8833 610.482 37 610.115 37H603.015C602.682 37 602.382 36.8833 602.115 36.65C601.848 36.3833 601.715 36.0667 601.715 35.7V34.3C600.915 35.2667 599.898 36.05 598.665 36.65C597.465 37.2167 595.965 37.5 594.165 37.5ZM597.565 29.7C598.432 29.7 599.115 29.5167 599.615 29.15C600.148 28.7833 600.515 28.3 600.715 27.7C600.948 27.1 601.082 26.4333 601.115 25.7C601.182 24.9667 601.215 24.3333 601.215 23.8C601.215 23.2667 601.182 22.65 601.115 21.95C601.082 21.25 600.932 20.6333 600.665 20.1C600.432 19.5667 600.065 19.1333 599.565 18.8C599.065 18.4667 598.398 18.3 597.565 18.3C596.732 18.3 596.065 18.4833 595.565 18.85C595.065 19.1833 594.698 19.6667 594.465 20.3C594.265 20.9 594.132 21.6 594.065 22.4C593.965 23.4667 593.965 24.5333 594.065 25.6C594.132 26.4 594.265 27.1167 594.465 27.75C594.698 28.35 595.065 28.8333 595.565 29.2C596.065 29.5333 596.732 29.7 597.565 29.7Z" fill="url(#paint0_radial_3_12)"/>
<defs>
<radialGradient id="paint0_radial_3_12" cx="0" cy="0" r="1" gradientUnits="userSpaceOnUse" gradientTransform="translate(31.9979 -32.4997) rotate(9.81691) scale(733.136 7864.18)">
<stop stop-color="#008AFF"/>
<stop offset="0.856356" stop-color="#2C49A9"/>
<stop offset="1" stop-color="#008AFF" stop-opacity="0"/>
</radialGradient>
</defs>
</svg>
